<svg width="837" height="213" viewBox="0 0 837 213" fill="none" xmlns="http://www.w3.org/2000/svg">
<path d="M97.4803 104.641C97.4803 111.889 96.1829 117.078 93.588 120.21C90.9931 123.252 87.0561 124.773 81.7769 124.773C76.5872 124.773 72.7844 123.387 70.3685 120.613C67.9526 117.749 66.7446 112.739 66.7446 105.58L66.6104 90.4139H39.2301V104.641C39.2301 111.978 37.9774 117.168 35.472 120.21C32.9667 123.252 28.9849 124.773 23.5267 124.773C18.337 124.773 14.5342 123.387 12.1183 120.613C9.70238 117.749 8.49443 112.739 8.49443 105.58L8.09178 48.9408C8.09178 43.3932 9.47868 39.3219 12.2525 36.7271C15.1158 34.1322 18.8739 32.8348 23.5267 32.8348C28.8954 32.8348 32.8324 33.819 35.3378 35.7876C37.9327 37.7561 39.2301 41.7379 39.2301 47.7329V70.2813H66.4762V48.9408C66.4762 45.1828 67.1473 42.0958 68.4894 39.6799C69.9211 37.1745 71.7106 35.4297 73.8581 34.4454C76.0951 33.3717 78.7347 32.8348 81.7769 32.8348C86.9666 32.8348 90.8589 33.819 93.4538 35.7876C96.1381 37.7561 97.4803 41.7379 97.4803 47.7329V104.641ZM135.366 125.579C128.297 125.579 122.437 122.715 117.784 116.989C113.131 111.173 110.804 103.254 110.804 93.2324C110.804 83.032 113.086 74.9342 117.65 68.9392C122.302 62.8547 128.208 59.8124 135.366 59.8124C142.614 59.8124 149.325 62.3625 155.499 67.4628C157.915 62.9889 161.807 60.7519 167.176 60.7519C172.007 60.7519 175.766 61.8257 178.45 63.9731C181.134 66.0311 182.476 69.8787 182.476 75.5158V110.412C182.476 115.781 181.358 119.539 179.121 121.686C176.884 123.744 172.947 124.773 167.31 124.773C161.404 124.773 157.512 123.118 155.633 119.807C149.906 123.655 143.151 125.579 135.366 125.579ZM153.62 80.3476C152.099 77.7527 150.13 76.4553 147.714 76.4553C145.388 76.4553 143.509 78.1554 142.077 81.5556C140.645 84.9557 139.93 88.848 139.93 93.2324C139.93 97.3484 140.601 101.017 141.943 104.238C143.285 107.459 145.164 109.07 147.58 109.07C150.085 109.07 152.099 107.862 153.62 105.446V80.3476Z" fill="black"/>
<path d="M326.07 110.412C326.07 115.781 324.951 119.539 322.714 121.686C320.477 123.744 316.496 124.773 310.769 124.773C305.49 124.773 301.911 123.565 300.032 121.15C298.153 118.644 297.213 114.573 297.213 108.936V75.9184C297.213 72.8762 297.75 70.2366 298.824 67.9996C299.897 65.6732 301.463 63.8837 303.521 62.631C305.579 61.3783 307.995 60.7519 310.769 60.7519C317.569 60.7519 322.043 62.7204 324.191 66.6575C329.38 62.7204 334.391 60.7519 339.223 60.7519C348.618 60.7519 353.316 65.2258 353.316 74.1736C353.316 77.7527 352.287 80.6608 350.229 82.8977C348.171 85.1347 345.486 86.2532 342.176 86.2532C340.207 86.2532 338.597 85.8505 337.344 85.0452C336.181 84.2399 335.062 83.4346 333.989 82.6293C333.004 81.824 331.841 81.4213 330.499 81.4213C328.53 81.4213 327.054 82.0924 326.07 83.4346V110.412Z" fill="black"/>
<path d="M241.86 144.486C234.927 142.208 153.497 137.174 125.051 135.39C123.638 135.301 122.024 136.06 122.422 137.418C126.286 150.576 230.895 173.389 236.224 168.226C241.86 162.766 248.986 146.827 241.86 144.486Z" fill="black" stroke="black" stroke-width="0.679228"/>
<ellipse cx="4.24518" cy="4.24517" rx="4.24518" ry="4.24517" transform="matrix(0.985165 -0.17161 0.171611 0.985165 217.211 151.238)" fill="white"/>
<g filter="url(#filter0_d_2466_5611)">
<path d="M223.106 57.8501C223.921 57.8501 225.257 56.9445 225.823 56.4917C229.084 58.1211 230.577 56.7184 230.916 55.8133C231.255 55.8133 232.138 55.7454 232.953 55.4737C235.331 54.7945 235.331 51.738 235.331 50.3795C235.331 49.0211 234.312 45.6249 232.274 44.2665C232.953 43.2476 232.614 42.2288 232.614 41.8892C232.614 41.5496 231.595 39.8515 230.576 39.5119C229.761 39.2402 230.236 38.4931 230.576 38.1534C230.689 38.0402 231.052 37.6101 231.595 36.795C232.274 35.7761 231.595 34.0781 231.255 33.7385C230.984 33.4668 231.369 32.946 231.595 32.7196C232.161 32.4932 233.497 31.9045 234.312 31.3612C235.331 31.0216 235.67 30.0027 236.01 28.3046C236.35 26.6066 234.312 25.2481 235.67 23.5501C238.387 21.5124 241.104 23.8897 243.481 23.2104C243.142 23.8897 247.896 30.0027 248.915 31.0216C249.255 32.0404 248.576 37.8138 248.236 39.1723C248.236 40.5307 247.217 42.5684 246.538 43.9269C245.859 45.2853 242.802 46.3042 242.802 47.6626C240.085 52.7568 244.161 55.8133 246.198 56.153C246.878 57.5114 250.613 58.5303 251.972 57.1718C256.047 58.1906 255.708 57.5114 258.425 54.7945C259.783 55.1341 264.198 53.7757 264.198 50.3795C266.915 49.3607 268.613 47.6626 268.273 45.2853C270.311 41.8892 269.971 39.5119 268.613 37.1346C269.156 33.6026 265.896 31.1348 264.198 30.3423C264.424 29.7763 264.673 28.3726 263.858 27.2858C261.481 26.267 261.141 24.2293 261.141 23.2104C259.443 16.0786 256.387 17.0974 255.028 17.0974C252.991 14.0409 249.595 15.0597 248.576 15.7389C248.576 15.0597 248.236 14.3805 247.896 13.7013C242.463 6.90899 241.444 8.26611 238.048 8.26611C234.312 5.88881 230.236 8.26611 228.878 9.62431C226.501 9.28469 222.086 9.96392 220.727 12.3412C219.369 14.7185 218.35 14.7185 216.992 15.3984C213.256 15.0588 212.237 16.0776 211.558 18.1153C211.897 21.8511 210.539 22.1907 209.86 22.5303C204.426 24.568 206.125 28.3037 206.124 30.0018C203.747 33.0583 205.105 35.7752 206.125 37.1337C203.069 41.2091 205.106 44.2656 207.144 45.624C207.484 50.3786 209.861 50.7182 212.578 50.7182C213.936 56.1521 217.332 55.8124 219.03 55.8124C220.661 57.986 222.427 58.0765 223.106 57.8501Z" fill="black"/>
<path d="M223.106 57.8501C223.921 57.8501 225.257 56.9445 225.823 56.4917C229.084 58.1211 230.577 56.7184 230.916 55.8133C231.255 55.8133 232.138 55.7454 232.953 55.4737C235.331 54.7945 235.331 51.738 235.331 50.3795C235.331 49.0211 234.312 45.6249 232.274 44.2665C232.953 43.2476 232.614 42.2288 232.614 41.8892C232.614 41.5496 231.595 39.8515 230.576 39.5119C229.761 39.2402 230.236 38.4931 230.576 38.1534C230.689 38.0402 231.052 37.6101 231.595 36.795C232.274 35.7761 231.595 34.0781 231.255 33.7385C230.984 33.4668 231.369 32.946 231.595 32.7196C232.161 32.4932 233.497 31.9045 234.312 31.3612C235.331 31.0216 235.67 30.0027 236.01 28.3046C236.35 26.6066 234.312 25.2481 235.67 23.5501C238.387 21.5124 241.104 23.8897 243.481 23.2104C243.142 23.8897 247.896 30.0027 248.915 31.0216C249.255 32.0404 248.576 37.8138 248.236 39.1723C248.236 40.5307 247.217 42.5684 246.538 43.9269C245.859 45.2853 242.802 46.3042 242.802 47.6626C240.085 52.7568 244.161 55.8133 246.198 56.153C246.878 57.5114 250.613 58.5303 251.972 57.1718C256.047 58.1906 255.708 57.5114 258.425 54.7945C259.783 55.1341 264.198 53.7757 264.198 50.3795C266.915 49.3607 268.613 47.6626 268.273 45.2853C270.311 41.8892 269.971 39.5119 268.613 37.1346C269.156 33.6026 265.896 31.1348 264.198 30.3423C264.424 29.7763 264.673 28.3726 263.858 27.2858C261.481 26.267 261.141 24.2293 261.141 23.2104C259.443 16.0786 256.387 17.0974 255.028 17.0974C252.991 14.0409 249.595 15.0597 248.576 15.7389C248.576 15.0597 248.236 14.3805 247.896 13.7013C242.463 6.90899 241.444 8.26611 238.048 8.26611C234.312 5.88881 230.236 8.26611 228.878 9.62431C226.501 9.28469 222.086 9.96392 220.727 12.3412C219.369 14.7185 218.35 14.7185 216.992 15.3984C213.256 15.0588 212.237 16.0776 211.558 18.1153C211.897 21.8511 210.539 22.1907 209.86 22.5303C204.426 24.568 206.125 28.3037 206.124 30.0018C203.747 33.0583 205.105 35.7752 206.125 37.1337C203.069 41.2091 205.106 44.2656 207.144 45.624C207.484 50.3786 209.861 50.7182 212.578 50.7182C213.936 56.1521 217.332 55.8124 219.03 55.8124C220.661 57.986 222.427 58.0765 223.106 57.8501Z" stroke="black" stroke-width="0.679228" stroke-miterlimit="3.07467" stroke-linecap="round"/>
</g>
<g filter="url(#filter1_d_2466_5611)">
<path d="M262.934 136.182L212.005 127.895C209.526 127.491 207.631 129.494 209.375 131.301C213.814 135.902 224.779 140.278 237.36 141.054C249.99 141.834 249.024 153.502 246.647 158.03C243.59 163.69 237.409 175.55 236.458 177.388C232.067 185.878 242.935 190.972 248.708 183.501C253.709 177.029 263.628 164.482 267.024 152.256C269.517 143.28 266.48 138.385 264.214 136.677C263.842 136.398 263.393 136.256 262.934 136.182Z" fill="#FF6D2E"/>
<path d="M262.988 135.846L212.06 127.559C210.727 127.343 209.504 127.765 208.846 128.551C208.514 128.948 208.328 129.439 208.363 129.972C208.398 130.504 208.652 131.04 209.131 131.537C211.401 133.89 215.306 136.156 220.198 137.931C225.098 139.709 231.017 141.003 237.34 141.393C240.444 141.585 242.682 142.443 244.266 143.668C245.849 144.891 246.802 146.499 247.305 148.231C248.316 151.713 247.501 155.67 246.347 157.87C243.289 163.534 237.107 175.394 236.157 177.232C235.025 179.419 234.861 181.423 235.384 183.078C235.907 184.731 237.104 185.999 238.624 186.736C241.665 188.21 245.997 187.565 248.977 183.709C249.147 183.489 249.322 183.263 249.503 183.029C254.636 176.396 264.05 164.232 267.351 152.347C269.874 143.263 266.817 138.213 264.418 136.406C263.986 136.08 263.476 135.926 262.988 135.846Z" stroke="black" stroke-width="0.679228"/>
</g>
<g filter="url(#filter2_d_2466_5611)">
<path d="M269.571 117.787L214.538 109.468C213.082 109.248 211.581 109.161 210.17 109.584C204.981 111.137 202.819 115.671 203.942 119.938C204.811 123.242 208.378 124.72 211.75 125.27C227.64 127.861 253.691 131.956 265.794 133.32C267.509 133.513 269.281 133.475 270.869 132.799C278.745 129.45 275.561 120.903 271.833 118.483C271.164 118.048 270.361 117.907 269.571 117.787Z" fill="#FF6D2E"/>
<path d="M269.571 117.787L214.538 109.468C213.082 109.248 211.581 109.161 210.17 109.584C204.981 111.137 202.819 115.671 203.942 119.938C204.811 123.242 208.378 124.72 211.75 125.27C227.64 127.861 253.691 131.956 265.794 133.32C267.509 133.513 269.281 133.475 270.869 132.799C278.745 129.45 275.561 120.903 271.833 118.483C271.164 118.048 270.361 117.907 269.571 117.787Z" stroke="black" stroke-width="0.679228"/>
</g>
<g filter="url(#filter3_d_2466_5611)">
<path d="M210.67 105.251V97.9265C210.67 97.1763 211.279 96.5734 212.026 96.4984C219.137 95.7841 226.792 89.7793 230.368 87.7364C234.171 85.5629 236.481 86.0401 238.858 87.0579C239.13 87.1712 243.273 89.5962 245.311 90.7945L248.367 92.4926C250.971 93.6246 253.146 95.2102 258.216 95.2095C261.547 95.209 263.657 94.795 265.101 94.3189C266.034 94.0115 267.074 94.6143 267.12 95.5955L267.963 113.587C268.003 114.444 267.248 115.124 266.4 114.993L211.822 106.594C211.159 106.492 210.67 105.922 210.67 105.251Z" fill="#FF6D2E"/>
<path d="M210.67 105.251V97.9265C210.67 97.1763 211.279 96.5734 212.026 96.4984C219.137 95.7841 226.792 89.7793 230.368 87.7364C234.171 85.5629 236.481 86.0401 238.858 87.0579C239.13 87.1712 243.273 89.5962 245.311 90.7945L248.367 92.4926C250.971 93.6246 253.146 95.2102 258.216 95.2095C261.547 95.209 263.657 94.795 265.101 94.3189C266.034 94.0115 267.074 94.6143 267.12 95.5955L267.963 113.587C268.003 114.444 267.248 115.124 266.4 114.993L211.822 106.594C211.159 106.492 210.67 105.922 210.67 105.251Z" stroke="black" stroke-width="0.679228"/>
</g>
<g filter="url(#filter4_d_2466_5611)">
<path d="M258.65 60.582H216.989C213.277 60.582 209.457 61.2369 206.581 63.5824C198.368 70.2799 199.401 80.0137 203.198 86.7323C207.215 93.8407 215.424 93.8642 218.141 92.1661C219.872 91.0842 225.429 87.5192 228.384 85.8548C229.439 85.2601 230.524 84.7066 231.655 84.2728C234.195 83.2991 236.207 83.4604 238.015 83.8476C239.397 84.1435 240.734 84.6257 242.013 85.2278L242.066 85.2531C243.616 85.9872 244.877 87.2025 246.316 88.1351L248.342 89.4492C249.587 90.1284 252.757 91.6227 255.474 92.1661C258.191 92.7095 260.681 92.3925 261.587 92.1661C262.945 91.8265 265.938 91.0293 267.385 89.7888C276.647 81.85 273.399 70.4058 268.568 64.2931C266.251 61.3622 262.385 60.582 258.65 60.582Z" fill="#FF6D2E"/>
<path d="M258.65 60.582H216.989C213.277 60.582 209.457 61.2369 206.581 63.5824C198.368 70.2799 199.401 80.0137 203.198 86.7323C207.215 93.8407 215.424 93.8642 218.141 92.1661C219.872 91.0842 225.429 87.5192 228.384 85.8548C229.439 85.2601 230.524 84.7066 231.655 84.2728C234.195 83.2991 236.207 83.4604 238.015 83.8476C239.397 84.1435 240.734 84.6257 242.013 85.2278L242.066 85.2531C243.616 85.9872 244.877 87.2025 246.316 88.1351L248.342 89.4492C249.587 90.1284 252.757 91.6227 255.474 92.1661C258.191 92.7095 260.681 92.3925 261.587 92.1661C262.945 91.8265 265.938 91.0293 267.385 89.7888C276.647 81.85 273.399 70.4058 268.568 64.2931C266.251 61.3622 262.385 60.582 258.65 60.582Z" stroke="#1A1C1B" stroke-width="0.679228"/>
</g>
<path d="M212.225 75.5109C218.338 70.4155 235.462 67.9575 241.431 70.905C247.401 73.8526 248.563 80.95 240.073 84.3461" stroke="black" stroke-width="0.679228" stroke-miterlimit="3.07467" stroke-linecap="round"/>
<path d="M244.879 73.4922C248.839 74.575 253.159 76.3735 254.959 77.8138" stroke="black" stroke-width="0.679228" stroke-miterlimit="3.07467" stroke-linecap="round"/>
<path fill-rule="evenodd" clip-rule="evenodd" d="M285.872 171.942C286.918 173.498 288.129 175.299 290.007 177.223C297.556 183.795 310.474 188.473 324.701 180.467C337.988 170.71 337.07 154.166 330.756 144.415C324.442 134.664 306.665 128.556 294.576 138.247C284.817 146.07 276.986 145.525 272.365 145.202C272.064 145.181 271.777 145.161 271.504 145.145C270.869 145.106 270.456 146.06 270.642 146.669C272.01 151.153 268.111 162.385 264.51 168.267C264.136 168.879 264.859 169.824 265.535 169.585C270.035 167.988 276.286 166.281 279.062 166.678C282.68 167.195 284.015 169.181 285.872 171.942ZM311.3 175.722C320.632 174.795 327.447 166.479 326.521 157.147C325.594 147.815 317.278 141 307.946 141.926C298.614 142.852 284.487 148.307 285.413 157.639C286.34 166.972 301.968 176.648 311.3 175.722Z" fill="black"/>
<path d="M241.28 81.6519C241.789 81.5674 241.002 80.8728 239.658 80.0483C234.415 76.8307 226.599 78.484 221.956 82.5192C221.441 82.9661 220.959 83.4073 220.506 83.8264C219.222 85.0136 217.68 87.3963 218.514 88.9333C219.519 90.7848 221.255 89.1524 222.792 87.707L222.817 87.6828C229.722 81.1898 236.316 82.4753 241.28 81.6519Z" fill="#D44000"/>
<path d="M262.713 90.2997C262.548 90.789 263.531 90.4201 264.89 89.6212C270.193 86.5033 272.405 78.8266 271.023 72.8319C270.87 72.168 270.707 71.5353 270.55 70.9384C270.104 69.2473 268.725 66.767 266.977 66.7815C264.87 66.7989 265.496 69.0979 266.05 71.1334L266.06 71.1676C268.549 80.3126 264.317 85.531 262.713 90.2997Z" fill="#D44000"/>
<path d="M269.788 132.226C269.706 132.471 270.197 132.286 270.877 131.887C273.528 130.328 274.634 126.489 273.943 123.492C273.867 123.16 273.785 122.844 273.706 122.545C273.484 121.7 272.794 120.46 271.92 120.467C270.867 120.476 271.18 121.625 271.457 122.643L271.461 122.66C272.706 127.232 270.59 129.842 269.788 132.226Z" fill="#D44000"/>
<path d="M265.869 113.028C266.916 111.41 256.933 108.51 254.548 107.853C241.999 103.499 228.02 102.067 219.338 100.951L219.3 100.946C217.352 100.696 215.309 100.433 213.486 101.158C210.977 102.156 214.022 103.721 216.331 104.517C229.69 107.689 264.822 114.647 265.869 113.028Z" fill="#D44000"/>
<path d="M242.966 185.929C244.269 187.242 248.023 182.662 248.889 181.552C253.49 176.86 258.865 167.821 262.045 161.942C263.556 159.148 263.444 155.385 260.762 157.086C259.746 157.731 258.683 158.586 257.842 159.32C256.86 160.177 256.04 161.187 255.327 162.278C250.524 169.628 241.761 184.715 242.966 185.929Z" fill="#D44000"/>
<path d="M340.776 194.506C340.837 184.601 334.875 179.205 328.896 177.587C327.264 177.145 324.668 172.403 325.75 171.105L326.688 169.979C327.583 168.905 332.69 170.069 333.614 171.119C333.675 171.189 333.776 171.283 333.852 171.335C344.095 178.425 345.279 185.588 345.279 188.381C345.279 191.772 343.43 201.259 341.129 196.414C340.85 195.828 340.772 195.155 340.776 194.506Z" fill="black"/>
<path d="M476.637 113.502C479.782 113.502 481.959 111.808 483.169 108.421C484.379 104.954 484.983 99.3494 484.983 91.6081L485.225 61.9731C485.225 57.6992 486.193 54.5946 488.128 52.6593C490.144 50.6433 493.571 49.6353 498.41 49.6353C501.393 49.6353 503.772 50.1191 505.546 51.0868C507.401 52.0545 508.974 53.9495 510.264 56.7719C511.554 59.5943 512.441 63.4246 512.925 68.263C513.409 73.1013 513.651 79.5122 513.651 87.4955C513.651 92.2532 513.247 96.6883 512.441 100.801C511.635 104.914 510.546 108.502 509.175 111.566C507.804 114.631 506.151 117.413 504.216 119.912C502.361 122.332 500.385 124.348 498.289 125.96C496.192 127.573 493.975 128.944 491.636 130.073C489.298 131.121 486.999 131.887 484.741 132.371C482.564 132.774 480.427 132.976 478.331 132.976C471.073 132.976 464.501 130.678 458.614 126.081C452.808 130.839 446.236 133.218 438.898 133.218C435.753 133.218 432.608 132.774 429.463 131.887C426.318 130.92 423.093 129.307 419.786 127.049C416.561 124.791 413.698 122.009 411.198 118.703C408.699 115.316 406.642 110.961 405.029 105.639C403.497 100.236 402.731 94.2692 402.731 87.7374C402.731 77.1736 403.215 69.1903 404.183 63.7875C405.231 58.3847 406.763 54.7156 408.779 52.7802C410.876 50.8449 413.9 49.8772 417.851 49.8772C421.157 49.8772 423.778 50.3611 425.713 51.3287C427.649 52.2158 429.02 53.5463 429.826 55.3204C430.632 57.0944 431.036 59.3927 431.036 62.215L431.157 91.729C431.157 99.4704 431.761 105.075 432.971 108.542C434.181 112.01 436.559 113.744 440.108 113.744C441.882 113.744 443.212 113.018 444.099 111.566C444.986 110.034 445.591 107.615 445.914 104.309C444.865 99.6317 444.341 92.3338 444.341 82.4152C444.341 76.8511 444.462 72.4159 444.704 69.1097C444.946 65.8035 445.309 62.9408 445.793 60.5216C446.276 58.1024 447.083 56.3687 448.212 55.3204C449.341 54.2721 450.591 53.5463 451.962 53.1431C453.413 52.6593 455.389 52.4174 457.889 52.4174C459.34 52.4174 460.59 52.4577 461.638 52.5383C462.767 52.619 463.816 52.8609 464.783 53.2641C465.751 53.6673 466.557 54.0302 467.202 54.3527C467.848 54.6753 468.452 55.2801 469.017 56.1671C469.581 57.0541 470.025 57.8202 470.347 58.4653C470.67 59.1104 470.952 60.1587 471.194 61.6102C471.517 63.0618 471.718 64.352 471.799 65.4809C471.96 66.5292 472.041 68.142 472.041 70.3193C472.121 72.4159 472.162 74.2706 472.162 75.8834C472.242 77.4155 472.283 79.6331 472.283 82.5361C472.283 92.6967 471.759 100.196 470.71 105.035C471.033 107.938 471.638 110.074 472.525 111.445C473.412 112.816 474.782 113.502 476.637 113.502ZM545.207 133.218C538.836 133.218 533.554 130.637 529.361 125.477C525.168 120.235 523.071 113.098 523.071 104.067C523.071 94.874 525.128 87.5761 529.24 82.1733C533.433 76.6898 538.756 73.9481 545.207 73.9481C551.739 73.9481 557.786 76.2463 563.351 80.8427C565.528 76.8108 569.036 74.7948 573.874 74.7948C578.229 74.7948 581.615 75.7624 584.035 77.6978C586.454 79.5525 587.663 83.02 587.663 88.1003V119.55C587.663 124.388 586.655 127.775 584.639 129.71C582.623 131.565 579.075 132.492 573.995 132.492C568.673 132.492 565.165 131 563.472 128.017C558.311 131.484 552.222 133.218 545.207 133.218ZM561.657 92.4548C560.286 90.1162 558.512 88.947 556.335 88.947C554.238 88.947 552.545 90.4791 551.255 93.5434C549.964 96.6077 549.319 100.116 549.319 104.067C549.319 107.776 549.924 111.082 551.134 113.985C552.343 116.888 554.037 118.34 556.214 118.34C558.472 118.34 560.286 117.251 561.657 115.074V92.4548ZM661.693 98.3818C661.693 112.171 661.29 121.807 660.483 127.291C659.838 132.21 658.83 136.444 657.459 139.992C656.089 143.62 654.153 146.806 651.653 149.547C649.154 152.37 645.968 154.466 642.098 155.837C638.227 157.208 633.631 157.894 628.308 157.894C624.034 157.894 620.043 157.248 616.333 155.958C612.705 154.749 609.802 153.216 607.624 151.362C605.528 149.588 603.875 147.814 602.665 146.04C601.455 144.266 600.851 142.733 600.851 141.443C600.851 140.153 601.254 138.943 602.06 137.814C602.947 136.766 604.117 136.242 605.568 136.242C606.616 136.242 607.826 136.564 609.197 137.21C610.648 137.855 612.019 138.58 613.309 139.387C614.6 140.193 616.132 140.919 617.906 141.564C619.68 142.209 621.414 142.532 623.107 142.532C627.462 142.532 630.526 141.443 632.3 139.266C634.155 137.089 635.082 133.984 635.082 129.952C633.711 130.517 632.381 131 631.09 131.404C629.8 131.807 628.55 132.129 627.341 132.371C626.131 132.613 624.962 132.774 623.833 132.855C622.785 132.936 621.736 132.976 620.688 132.976C615.93 132.976 611.858 131.645 608.471 128.984C605.084 126.323 602.625 123.057 601.093 119.187C599.641 115.235 598.915 111.002 598.915 106.486C598.915 101.97 598.956 98.1398 599.036 94.9949C599.198 91.85 599.48 89.0679 599.883 86.6487C600.286 84.1489 600.73 82.1733 601.214 80.7218C601.778 79.2703 602.544 78.101 603.512 77.214C604.479 76.2463 605.568 75.6012 606.778 75.2786C607.987 74.956 609.439 74.7948 611.132 74.7948C616.212 74.7948 619.761 75.6818 621.777 77.4559C623.873 79.1493 624.922 81.8507 624.922 85.5601L625.042 105.035C625.042 106.325 625.042 107.292 625.042 107.938C625.042 108.502 625.083 109.228 625.163 110.115C625.325 111.002 625.486 111.647 625.647 112.05C625.889 112.453 626.171 112.897 626.494 113.381C626.897 113.784 627.381 114.066 627.945 114.227C628.591 114.389 629.357 114.469 630.244 114.469C632.663 114.469 634.155 113.824 634.719 112.534C635.364 111.163 635.687 108.704 635.687 105.155L635.808 85.5601C635.808 83.0603 636.211 81.0443 637.017 79.5122C637.904 77.98 639.356 76.8108 641.372 76.0044C643.388 75.198 646.13 74.7948 649.597 74.7948C651.694 74.7948 653.468 75.1576 654.919 75.8834C656.451 76.5285 657.661 77.4155 658.548 78.5445C659.435 79.5928 660.08 81.2056 660.483 83.3829C660.967 85.4795 661.29 87.6164 661.451 89.7937C661.612 91.9709 661.693 94.8336 661.693 98.3818ZM711.579 103.825C711.579 99.6317 711.055 95.9626 710.007 92.8177C708.958 89.5921 707.426 87.9793 705.41 87.9793C704.039 87.9793 702.83 88.7857 701.781 90.3985C700.733 92.0113 699.967 93.9869 699.483 96.3255C698.999 98.664 698.757 101.164 698.757 103.825C698.757 107.938 699.322 111.566 700.451 114.711C701.58 117.776 703.193 119.308 705.289 119.308C707.386 119.308 708.958 117.776 710.007 114.711C711.055 111.647 711.579 108.018 711.579 103.825ZM705.289 133.339C698.999 133.339 693.314 132.21 688.234 129.952C683.234 127.694 679.202 124.307 676.138 119.791C673.155 115.276 671.663 109.994 671.663 103.946C671.663 94.753 674.808 87.4551 681.097 82.0523C687.387 76.6495 695.451 73.9481 705.289 73.9481C715.127 73.9481 723.151 76.6495 729.36 82.0523C735.569 87.4551 738.674 94.753 738.674 103.946C738.674 113.058 735.489 120.235 729.118 125.477C722.828 130.718 714.885 133.339 705.289 133.339ZM785.952 99.9542C785.952 95.4384 784.178 93.1805 780.63 93.1805C778.936 93.1805 777.525 93.9063 776.396 95.3578C775.348 96.7287 774.743 98.5834 774.582 100.922V119.55C774.582 124.469 773.574 127.855 771.558 129.71C769.542 131.565 765.994 132.492 760.913 132.492C756.156 132.492 752.89 131.404 751.116 129.226C749.422 126.968 748.576 123.299 748.576 118.219V88.4631C748.576 84.3505 749.664 81.0443 751.841 78.5445C754.099 76.0447 757.083 74.7948 760.792 74.7948C763.857 74.7948 766.437 75.2383 768.534 76.1253C770.63 77.0124 772.203 78.5445 773.251 80.7218C779.541 76.6092 787.202 74.5529 796.233 74.5529C801.959 74.5529 806.071 76.8108 808.571 81.3266C811.152 85.8424 812.442 93.2612 812.442 103.583C812.442 108.663 812.321 112.816 812.079 116.042C811.837 119.187 811.434 121.928 810.869 124.267C810.386 126.525 809.579 128.218 808.45 129.347C807.321 130.476 805.991 131.283 804.459 131.766C803.007 132.25 801.112 132.492 798.774 132.492C794.258 132.492 790.992 131.645 788.976 129.952C787.04 128.259 786.073 125.759 786.073 122.453L785.952 99.9542Z" fill="black"/>
<defs>
<filter id="filter0_d_2466_5611" x="199.051" y="4.32652" width="76.1802" height="61.7095" filterUnits="userSpaceOnUse" color-interpolation-filters="sRGB">
<feFlood flood-opacity="0" result="BackgroundImageFix"/>
<feColorMatrix in="SourceAlpha" type="matrix" values="0 0 0 0 0 0 0 0 0 0 0 0 0 0 0 0 0 0 127 0" result="hardAlpha"/>
<feOffset dy="2.58754"/>
<feGaussianBlur stdDeviation="2.58754"/>
<feComposite in2="hardAlpha" operator="out"/>
<feColorMatrix type="matrix" values="0 0 0 0 0 0 0 0 0 0 0 0 0 0 0 0 0 0 0.25 0"/>
<feBlend mode="normal" in2="BackgroundImageFix" result="effect1_dropShadow_2466_5611"/>
<feBlend mode="normal" in="SourceGraphic" in2="effect1_dropShadow_2466_5611" result="shape"/>
</filter>
<filter id="filter1_d_2466_5611" x="202.844" y="124.577" width="70.9673" height="70.9908" filterUnits="userSpaceOnUse" color-interpolation-filters="sRGB">
<feFlood flood-opacity="0" result="BackgroundImageFix"/>
<feColorMatrix in="SourceAlpha" type="matrix" values="0 0 0 0 0 0 0 0 0 0 0 0 0 0 0 0 0 0 127 0" result="hardAlpha"/>
<feOffset dy="2.58754"/>
<feGaussianBlur stdDeviation="2.58754"/>
<feComposite in2="hardAlpha" operator="out"/>
<feColorMatrix type="matrix" values="0 0 0 0 0 0 0 0 0 0 0 0 0 0 0 0 0 0 0.25 0"/>
<feBlend mode="normal" in2="BackgroundImageFix" result="effect1_dropShadow_2466_5611"/>
<feBlend mode="normal" in="SourceGraphic" in2="effect1_dropShadow_2466_5611" result="shape"/>
</filter>
<filter id="filter2_d_2466_5611" x="198.137" y="106.358" width="83.1177" height="35.1666" filterUnits="userSpaceOnUse" color-interpolation-filters="sRGB">
<feFlood flood-opacity="0" result="BackgroundImageFix"/>
<feColorMatrix in="SourceAlpha" type="matrix" values="0 0 0 0 0 0 0 0 0 0 0 0 0 0 0 0 0 0 127 0" result="hardAlpha"/>
<feOffset dy="2.58754"/>
<feGaussianBlur stdDeviation="2.58754"/>
<feComposite in2="hardAlpha" operator="out"/>
<feColorMatrix type="matrix" values="0 0 0 0 0 0 0 0 0 0 0 0 0 0 0 0 0 0 0.25 0"/>
<feBlend mode="normal" in2="BackgroundImageFix" result="effect1_dropShadow_2466_5611"/>
<feBlend mode="normal" in="SourceGraphic" in2="effect1_dropShadow_2466_5611" result="shape"/>
</filter>
<filter id="filter3_d_2466_5611" x="205.155" y="83.2718" width="68.3248" height="39.8384" filterUnits="userSpaceOnUse" color-interpolation-filters="sRGB">
<feFlood flood-opacity="0" result="BackgroundImageFix"/>
<feColorMatrix in="SourceAlpha" type="matrix" values="0 0 0 0 0 0 0 0 0 0 0 0 0 0 0 0 0 0 127 0" result="hardAlpha"/>
<feOffset dy="2.58754"/>
<feGaussianBlur stdDeviation="2.58754"/>
<feComposite in2="hardAlpha" operator="out"/>
<feColorMatrix type="matrix" values="0 0 0 0 0 0 0 0 0 0 0 0 0 0 0 0 0 0 0.25 0"/>
<feBlend mode="normal" in2="BackgroundImageFix" result="effect1_dropShadow_2466_5611"/>
<feBlend mode="normal" in="SourceGraphic" in2="effect1_dropShadow_2466_5611" result="shape"/>
</filter>
<filter id="filter4_d_2466_5611" x="194.827" y="57.6546" width="83.9771" height="43.5377" filterUnits="userSpaceOnUse" color-interpolation-filters="sRGB">
<feFlood flood-opacity="0" result="BackgroundImageFix"/>
<feColorMatrix in="SourceAlpha" type="matrix" values="0 0 0 0 0 0 0 0 0 0 0 0 0 0 0 0 0 0 127 0" result="hardAlpha"/>
<feOffset dy="2.58754"/>
<feGaussianBlur stdDeviation="2.58754"/>
<feComposite in2="hardAlpha" operator="out"/>
<feColorMatrix type="matrix" values="0 0 0 0 0 0 0 0 0 0 0 0 0 0 0 0 0 0 0.25 0"/>
<feBlend mode="normal" in2="BackgroundImageFix" result="effect1_dropShadow_2466_5611"/>
<feBlend mode="normal" in="SourceGraphic" in2="effect1_dropShadow_2466_5611" result="shape"/>
</filter>
</defs>
</svg>
